<svg
      width="64"
      height="36"
      viewBox="0 0 64 36"
      fill="none"
      xmlns="http://www.w3.org/2000/svg"
    >
      <path
        d="M63.0856 16.1538C63.0856 17.5384 63.0856 19.3845 62.6285 20.7691H41.1428C41.5999 22.6153 42.5142 23.9999 44.3428 25.3845C45.7142 26.3076 47.5428 26.7691 49.8285 26.7691C53.0285 26.7691 55.7713 25.8461 58.5142 23.5384L62.1713 29.0768C58.5142 32.3076 54.3999 33.6922 49.8285 33.6922C44.7999 33.6922 41.1428 32.3076 37.9428 29.0768C34.7428 25.8461 33.3713 22.1537 33.3713 17.5384C33.3713 12.923 34.7428 9.23067 37.9428 5.99991C41.1428 2.76914 44.7999 1.38452 49.3713 1.38452C53.4856 1.38452 57.1428 2.76914 59.8856 5.53837C61.7142 8.3076 63.0856 11.9999 63.0856 16.1538ZM48.4571 8.3076C46.6285 8.3076 45.2571 8.76914 43.8856 10.1538C42.5142 11.0768 41.5999 12.923 41.1428 14.7691H54.8571C54.8571 12.923 53.9428 11.5384 53.0285 10.1538C51.6571 8.76914 50.2856 8.3076 48.4571 8.3076Z"
        fill="#A80334"
      />
      <path
        d="M25.5999 12.4612L6.39994 33.2305C5.48566 34.1535 4.57137 34.1535 3.65709 33.2305L0.91423 30.4612C-5.58048e-05 29.5382 -5.58048e-05 28.6151 0.91423 27.692L20.1142 6.92278C21.0285 5.9997 21.9428 5.9997 22.8571 6.92278L25.5999 9.69201C26.5142 10.1535 26.5142 11.5382 25.5999 12.4612Z"
        fill="#A80334"
      />
      <path
        d="M31.5429 3.6921V31.8459C31.5429 32.769 30.6286 33.6921 29.7143 33.6921H25.6001C24.6858 33.6921 23.7715 32.769 23.7715 31.8459V3.6921C23.7715 2.76902 24.6858 1.84595 25.6001 1.84595H29.2572C30.6286 1.84595 31.5429 2.76902 31.5429 3.6921Z"
        fill="#A80334"
      />
      <path
        d="M29.257 9.23056H2.2856C1.37132 9.23056 0.457031 8.76902 0.457031 7.38441V3.6921C0.457031 2.76902 1.37132 1.84595 2.2856 1.84595H29.257C30.1713 1.84595 31.0856 2.76902 31.0856 3.6921V7.38441C31.5427 8.76902 30.6285 9.23056 29.257 9.23056Z"
        fill="#A80334"
      />
    </svg>